HIERARCHY
ROOT Hips
{
	OFFSET 53.259300 -17.783815 93.620102
	CHANNELS 6 Xposition Yposition Zposition Xrotation Yrotation Zrotation
	JOINT spine
	{
		OFFSET 0.000000 -0.429888 7.475601
		CHANNELS 3 Xrotation Yrotation Zrotation
		JOINT spine1
		{
			OFFSET 0.000000 0.000000 9.923012
			CHANNELS 3 Xrotation Yrotation Zrotation
			JOINT spine2
			{
				OFFSET 0.000000 -0.000002 9.508041
				CHANNELS 3 Xrotation Yrotation Zrotation
				JOINT Neck
				{
					OFFSET 0.000000 -1.163843 24.411095
					CHANNELS 3 Xrotation Yrotation Zrotation
					JOINT Head
					{
						OFFSET 0.000000 -0.000002 7.375229
						CHANNELS 3 Xrotation Yrotation Zrotation
						End Site
						{
							OFFSET 0.000000 5.887407 17.852203
						}
					}
				}
				JOINT RightShoulder
				{
					OFFSET -4.003559 0.557467 10.267906
					CHANNELS 3 Xrotation Yrotation Zrotation
					JOINT RightArm
					{
						OFFSET 0.000000 -0.000002 13.467300
						CHANNELS 3 Xrotation Yrotation Zrotation
						JOINT RightArmRoll
						{
							OFFSET 0.000000 -0.000002 6.798584
							CHANNELS 3 Xrotation Yrotation Zrotation
							JOINT RightForeArm
							{
								OFFSET 0.000000 -0.000004 19.801804
								CHANNELS 3 Xrotation Yrotation Zrotation
								JOINT RightForeArmRoll
								{
									OFFSET 0.000000 0.000000 7.629044
									CHANNELS 3 Xrotation Yrotation Zrotation
									JOINT RightHand
									{
										OFFSET 0.000000 -0.000004 15.309799
										CHANNELS 3 Xrotation Yrotation Zrotation
										End Site
										{
											OFFSET 0.000000 0.000000 0.100006
										}
									}
								}
							}
						}
					}
				}
				JOINT LeftShoulder
				{
					OFFSET 4.003559 0.557467 10.267906
					CHANNELS 3 Xrotation Yrotation Zrotation
					JOINT LeftArm
					{
						OFFSET 0.000000 -0.000002 13.467300
						CHANNELS 3 Xrotation Yrotation Zrotation
						JOINT LeftArmRoll
						{
							OFFSET 0.000000 -0.000002 6.798584
							CHANNELS 3 Xrotation Yrotation Zrotation
							JOINT LeftForeArm
							{
								OFFSET 0.000000 -0.000004 19.801804
								CHANNELS 3 Xrotation Yrotation Zrotation
								JOINT LeftForeArmRoll
								{
									OFFSET 0.000000 0.000000 7.629044
									CHANNELS 3 Xrotation Yrotation Zrotation
									JOINT LeftHand
									{
										OFFSET 0.000000 -0.000004 15.309799
										CHANNELS 3 Xrotation Yrotation Zrotation
										End Site
										{
											OFFSET 0.000000 0.000000 0.100006
										}
									}
								}
							}
						}
					}
				}
			}
		}
	}
	JOINT RightUpLeg
	{
		OFFSET -6.626091 1.019270 -1.215050
		CHANNELS 3 Xrotation Yrotation Zrotation
		JOINT RightUpLegRoll
		{
			OFFSET 0.000000 -0.000002 17.951698
			CHANNELS 3 Xrotation Yrotation Zrotation
			JOINT RightLeg
			{
				OFFSET 0.000000 0.000002 -22.230400
				CHANNELS 3 Xrotation Yrotation Zrotation
				JOINT RightLegRoll
				{
					OFFSET 0.000000 -0.000002 22.303200
					CHANNELS 3 Xrotation Yrotation Zrotation
					JOINT RightFoot
					{
						OFFSET 0.000000 -0.000004 18.563599
						CHANNELS 3 Xrotation Yrotation Zrotation
						JOINT RightToeBase
						{
							OFFSET 0.000000 -0.000002 15.518295
							CHANNELS 3 Xrotation Yrotation Zrotation
							End Site
							{
								OFFSET 0.006577 0.866261 7.515381
							}
						}
					}
				}
			}
		}
	}
	JOINT LeftUpLeg
	{
		OFFSET 6.626091 1.019270 -1.215050
		CHANNELS 3 Xrotation Yrotation Zrotation
		JOINT LeftUpLegRoll
		{
			OFFSET 0.000000 -0.000002 17.951797
			CHANNELS 3 Xrotation Yrotation Zrotation
			JOINT LeftLeg
			{
				OFFSET 0.000000 -0.000004 22.230309
				CHANNELS 3 Xrotation Yrotation Zrotation
				JOINT LeftLegRoll
				{
					OFFSET 0.000000 -0.000004 22.509308
					CHANNELS 3 Xrotation Yrotation Zrotation
					JOINT LeftFoot
					{
						OFFSET 0.000000 -0.000004 18.357498
						CHANNELS 3 Xrotation Yrotation Zrotation
						JOINT LeftToeBase
						{
							OFFSET 0.000000 -0.000002 15.518295
							CHANNELS 3 Xrotation Yrotation Zrotation
							End Site
							{
								OFFSET -0.029476 0.866261 7.515381
							}
						}
					}
				}
			}
		}
	}
}
MOTION
Frames: 5
Frame Time: 0.041667
53.789803 -15.474115 93.339897 -1.625343 -0.132665 -2.588664 -1.865192 0.546482 -0.096214 0.273324 1.095937 -0.191014 1.918509 1.093367 -0.204134 0.707607 -0.774771 1.218049 12.905204 -4.660473 2.388765 -9.411524 -75.941014 -12.101618 108.853572 -59.503140 124.021113 -0.000002 -0.000002 -0.000005 0.072391 -8.292146 -1.673420 -0.000001 0.000000 -3.137640 -5.000211 -7.998975 0.000132 -21.948050 66.961132 25.783645 133.481895 71.742381 -156.656358 -0.000001 -0.000003 0.000017 2.758812 1.184476 0.807798 -0.000010 0.000009 3.002112 -5.000162 8.000057 -0.000033 -8.181568 -183.848557 -4.235081 179.999991 0.000005 -1.098003 163.127812 0.508157 -0.711894 -0.000003 0.000005 0.297675 69.748505 6.890650 2.064443 25.456887 -7.359263 -0.000008 -6.463170 178.310776 1.819152 -0.000004 -0.000004 -0.984011 -13.956914 3.149678 0.852323 0.000001 0.000003 -0.176005 68.433400 -6.833411 -2.322569 25.456894 7.361101 0.000000 
53.780003 -15.499014 93.336197 -1.668132 -0.141466 -2.642699 -1.864624 0.548541 -0.097155 0.274460 1.099497 -0.193478 1.919652 1.096994 -0.206642 0.767082 -0.751703 1.250194 12.897293 -4.672194 2.419922 -9.408150 -75.934273 -12.097614 108.882914 -59.440855 124.057586 -0.000001 -0.000002 -0.000005 0.072305 -8.277005 -1.673172 0.000003 0.000000 -3.137381 -5.000214 -7.998972 0.000133 -22.030355 66.983576 25.876390 133.425369 71.761874 -156.672641 0.000000 -0.000004 0.000016 2.736662 1.130341 0.809287 -0.000011 0.000008 3.002112 -5.000165 8.000058 -0.000031 -8.113113 -183.839309 -4.225896 179.999991 0.000004 -1.099000 163.149915 0.506312 -0.711664 -0.000003 0.000005 0.296553 69.738697 6.890788 2.064679 25.456887 -7.359262 -0.000009 -6.375848 178.318453 1.816689 -0.000005 -0.000004 -0.985162 -13.924235 3.154968 0.851027 0.000001 0.000003 -0.175881 68.447839 -6.833503 -2.321992 25.456894 7.361099 -0.000000 
53.773205 -15.535015 93.331795 -1.711194 -0.149926 -2.695899 -1.863545 0.550503 -0.098376 0.276639 1.102957 -0.196290 1.921825 1.100501 -0.209496 0.820748 -0.728499 1.282036 12.891579 -4.683339 2.450833 -9.407004 -75.926616 -12.095975 108.915931 -59.378748 124.098581 -0.000001 -0.000002 -0.000004 0.072217 -8.261407 -1.672543 -0.000000 0.000000 -3.137139 -5.000211 -7.998974 0.000132 -22.114966 67.003111 25.971770 133.374361 71.776211 -156.692695 -0.000001 -0.000003 0.000016 2.715369 1.076531 0.810715 -0.000012 0.000008 3.002110 -5.000163 8.000057 -0.000032 -8.044917 -183.831044 -4.217530 179.999991 0.000005 -1.099000 163.171525 0.506361 -0.710856 -0.000003 0.000005 0.295496 69.729326 6.890942 2.064887 25.456883 -7.359261 -0.000008 -6.289474 178.326117 1.813420 -0.000006 -0.000004 -0.986306 -13.892963 3.160693 0.849804 0.000001 0.000003 -0.175745 68.461336 -6.833591 -2.321475 25.456895 7.361099 -0.000000 
53.766605 -15.550414 93.327599 -1.754666 -0.157997 -2.748100 -1.861916 0.552345 -0.099904 0.279935 1.106307 -0.199462 1.925127 1.103867 -0.212708 0.868366 -0.705044 1.313476 12.888368 -4.693960 2.481429 -9.408251 -75.917662 -12.096842 108.951148 -59.317331 124.142486 0.000000 -0.000002 -0.000004 0.072133 -8.245094 -1.671485 -0.000002 -0.000000 -3.136932 -5.000211 -7.998973 0.000133 -22.201392 67.019510 26.069218 133.325170 71.786989 -156.712147 -0.000001 -0.000003 0.000016 2.695121 1.023266 0.812077 -0.000010 0.000009 3.002113 -5.000165 8.000058 -0.000032 -7.976566 -183.823763 -4.210133 179.999991 0.000005 -1.099997 163.193122 0.507381 -0.710767 -0.000003 0.000005 0.294499 69.720474 6.891076 2.065062 25.456887 -7.359262 -0.000008 -6.203801 178.331827 1.809388 -0.000005 -0.000004 -0.987440 -13.863095 3.166965 0.848656 0.000002 0.000003 -0.175593 68.473883 -6.833679 -2.320817 25.456892 7.361099 -0.000000 
53.759403 -15.586213 93.334602 -1.798027 -0.165927 -2.800349 -1.859726 0.554166 -0.101802 0.284324 1.109736 -0.203098 1.929510 1.107282 -0.216387 0.908133 -0.682419 1.345097 12.888840 -4.702990 2.512248 -9.412548 -75.909295 -12.101018 108.985702 -59.255340 124.186732 -0.000001 -0.000002 -0.000005 0.072048 -8.228144 -1.670028 0.000001 -0.000000 -3.136751 -5.000209 -7.998975 0.000133 -22.293546 67.031121 26.173218 133.280418 71.790862 -156.735261 -0.000002 -0.000004 0.000016 2.675124 0.968871 0.813422 -0.000012 0.000008 3.002111 -5.000163 8.000058 -0.000029 -7.909975 -183.816455 -4.203773 179.999991 0.000005 -1.100994 163.212616 0.508378 -0.709650 -0.000003 0.000005 0.293617 69.712257 6.891231 2.065399 25.456887 -7.359261 -0.000008 -6.119574 178.337523 1.804346 -0.000006 -0.000004 -0.988557 -13.834640 3.174005 0.847622 0.000001 0.000003 -0.175431 68.484948 -6.833765 -2.320247 25.456890 7.361100 -0.000000 
